/usr/bin/ffmpeg -hide_banner -y -y -r 2 -start_number 0 -start_number_range 1 -i /home/supertuxi/Documents/GodotProjects/Todesstille/assets/textures/frame%04d.png -i /home/supertuxi/Documents/GodotProjects/Todesstille/assets/textures/KritaTempPalettegen_%06d.png -lavfi scale=w=960:h=411:flags=neighbor[0:v];[0:v][1:v]paletteuse=dither=sierra2_4a:diff_mode=none -f gif -loop 0 -gifflags +transdiff /home/supertuxi/Documents/GodotProjects/Todesstille/assets/textures/banner.gif
=====================================================
Input #0, image2, from '/home/supertuxi/Documents/GodotProjects/Todesstille/assets/textures/frame%04d.png':
  Duration: 00:00:04.32, start: 0.000000, bitrate: N/A
  Stream #0:0: Video: png, rgba(pc, gbr/unknown/unknown), 315x135 [SAR 11811:11811 DAR 7:3], 25 fps, 25 tbr, 25 tbn
Input #1, image2, from '/home/supertuxi/Documents/GodotProjects/Todesstille/assets/textures/KritaTempPalettegen_%06d.png':
  Duration: 00:00:00.04, start: 0.000000, bitrate: N/A
  Stream #1:0: Video: png, rgba(pc, gbr/unknown/unknown), 16x16 [SAR 1:1 DAR 1:1], 25 fps, 25 tbr, 25 tbn
Stream mapping:
  Stream #0:0 (png) -> scale:default
  Stream #1:0 (png) -> paletteuse
  paletteuse:default -> Stream #0:0 (gif)
Press [q] to stop, [?] for help
Output #0, gif, to '/home/supertuxi/Documents/GodotProjects/Todesstille/assets/textures/banner.gif':
  Metadata:
    encoder         : Lavf61.7.100
  Stream #0:0: Video: gif, pal8(pc, gbr/unknown/unknown, progressive), 960x411 [SAR 959:960 DAR 7:3], q=2-31, 200 kb/s, 2 fps, 100 tbn
      Metadata:
        encoder         : Lavc61.19.101 gif
frame=   98 fps=0.0 q=-0.0 size=    1792KiB time=00:00:49.00 bitrate= 299.6kbits/s speed=  98x    [out#0/gif @ 0x56016c745d40] video:2052KiB audio:0KiB subtitle:0KiB other streams:0KiB global headers:0KiB muxing overhead: 0.000952%
frame=  108 fps=0.0 q=-0.0 Lsize=    2052KiB time=00:00:54.00 bitrate= 311.3kbits/s speed=98.3x    
